<?xml version="1.0" encoding="utf-8"?>
<!-- Generator: Adobe Illustrator 23.0.6, SVG Export Plug-In . SVG Version: 6.00 Build 0)  -->
<svg version="1.1" id="Layer_1" xmlns="http://www.w3.org/2000/svg" xmlns:xlink="http://www.w3.org/1999/xlink" x="0px" y="0px"
	 viewBox="0 0 24 24" style="enable-background:new 0 0 24 24;" xml:space="preserve">
<style type="text/css">
	.st0{fill:#FFFFFF;}
</style>
<g>
	<rect x="11" y="1.5" class="st0" width="2" height="2"/>
	<path class="st0" d="M18,3.5h-5v2h-2v-2H6c-1.1,0-2,0.9-2,2v15c0,1.1,0.9,2,2,2h12c1.1,0,2-0.9,2-2v-15C20,4.4,19.1,3.5,18,3.5z
		 M10.2,9.8h2.3V8.1l2.3,2.3l-2.3,2.3v-1.7h-2.3V9.8z M9.6,19.9c-0.6,0-1.1-0.5-1.1-1.1c0-0.6,0.5-1.1,1.1-1.1s1.1,0.5,1.1,1.1
		C10.8,19.4,10.3,19.9,9.6,19.9z M15.3,19.9c-0.6,0-1.1-0.5-1.1-1.1c0-0.6,0.5-1.1,1.1-1.1c0.6,0,1.1,0.5,1.1,1.1
		C16.4,19.4,15.9,19.9,15.3,19.9z M9.6,16h6.8v1.1H9.6c-0.4,0-0.8-0.2-1-0.6c-0.2-0.4-0.2-0.8,0-1.2l0.7-1.1L7.4,9.8l-1.2,0l0-1.1
		l1.9,0l2.1,5.1h4.1l2.3-4.2l1,0.5l-2.3,4.2c-0.2,0.4-0.6,0.6-1,0.6h-4.2L9.6,16L9.6,16z"/>
</g>
</svg>
