<?xml version="1.0" encoding="utf-8"?>
<!-- Generator: Adobe Illustrator 23.0.6, SVG Export Plug-In . SVG Version: 6.00 Build 0)  -->
<svg version="1.1" id="Layer_1" xmlns="http://www.w3.org/2000/svg" xmlns:xlink="http://www.w3.org/1999/xlink" x="0px" y="0px"
	 viewBox="0 0 24 24" style="enable-background:new 0 0 24 24;" xml:space="preserve">
<style type="text/css">
	.st0{fill:#FFFFFF;}
</style>
<g>
	<rect x="11" y="1.5" class="st0" width="2" height="2"/>
	<path class="st0" d="M18,3.5h-5v2h-2v-2H6c-1.1,0-2,0.9-2,2v15c0,1.1,0.9,2,2,2h12c1.1,0,2-0.9,2-2v-15C20,4.4,19.1,3.5,18,3.5z
		 M9.6,9.8h1.8V8h1.2v1.8h1.8V11h-1.8v1.8h-1.2V11H9.6V9.8z M9,20.5c-0.7,0-1.2-0.5-1.2-1.2c0-0.7,0.5-1.2,1.2-1.2s1.2,0.5,1.2,1.2
		C10.2,20,9.7,20.5,9,20.5z M15,20.5c-0.7,0-1.2-0.5-1.2-1.2c0-0.7,0.5-1.2,1.2-1.2c0.7,0,1.2,0.5,1.2,1.2
		C16.1,20,15.6,20.5,15,20.5z M9,16.3h7.2v1.2H9c-0.9,0-1.5-1.1-1-1.9l0.7-1.1l-2-4.7l-1.2,0l0-1.2l2,0L9.7,14h4.4l2.4-4.4l1,0.6
		l-2.4,4.4c-0.2,0.4-0.6,0.6-1,0.6H9.6L9,16.3C8.9,16.3,8.9,16.3,9,16.3z"/>
</g>
</svg>
