<svg xmlns="http://www.w3.org/2000/svg" viewBox="0 0 24 24">
  <path d="M9 4C6.789063 4 5 5.789063 5 8C5 10.210938 6.789063 12 9 12C11.210938 12 13 10.210938 13 8C13 5.789063 11.210938 4 9 4 Z M 9 6C10.105469 6 11 6.894531 11 8C11 9.105469 10.105469 10 9 10C7.894531 10 7 9.105469 7 8C7 6.894531 7.894531 6 9 6 Z M 16.5 6C15.121094 6 14 7.121094 14 8.5C14 9.878906 15.121094 11 16.5 11C17.878906 11 19 9.878906 19 8.5C19 7.121094 17.878906 6 16.5 6 Z M 17 12C15.503906 12 14.402344 12.527344 13.625 13.15625C15.96875 14.480469 16.882813 16.5 16.9375 16.625L17 16.8125L17 17L22 17L22 15.34375C22 15.34375 20.796875 12 17 12 Z M 9 13C3.683594 13 2 17 2 17L2 19L16 19L16 17C16 17 14.316406 13 9 13 Z M 9 15C12.433594 15 13.53125 17 13.53125 17L4.46875 17C4.46875 17 5.609375 15 9 15Z" fill="#FFFFFF" />
</svg>