<?xml version="1.0" encoding="utf-8"?>
<!-- Generator: Adobe Illustrator 23.0.6, SVG Export Plug-In . SVG Version: 6.00 Build 0)  -->
<svg version="1.1" id="Layer_1" xmlns="http://www.w3.org/2000/svg" xmlns:xlink="http://www.w3.org/1999/xlink" x="0px" y="0px"
	 viewBox="0 0 24 24" style="enable-background:new 0 0 24 24;" xml:space="preserve">
<style type="text/css">
	.st0{fill:#FFFFFF;}
</style>
<g>
	<path class="st0" d="M18,3.5h-5v2h-2v-2H6c-1.1,0-2,0.9-2,2v15c0,1.1,0.9,2,2,2h12c1.1,0,2-0.9,2-2v-15C20,4.4,19.1,3.5,18,3.5z
		 M17.3,18.1c0,0.6-0.5,1.2-1.2,1.2H7.9c-0.6,0-1.2-0.5-1.2-1.2V11c0-0.1,0-0.2,0.1-0.3l1-1.8c0.1-0.2,0.3-0.3,0.5-0.3h7.4
		c0.2,0,0.4,0.1,0.5,0.3l1,1.8c0.1,0.1,0.1,0.2,0.1,0.3V18.1z"/>
	<polygon class="st0" points="11.4,9.9 8.6,9.9 8,11 11.4,11 	"/>
	<rect x="11" y="1.5" class="st0" width="2" height="2"/>
	<rect x="10.2" y="12.8" class="st0" width="3.6" height="1.2"/>
	<polygon class="st0" points="12.6,9.9 12.6,11 16,11 15.4,9.9 	"/>
</g>
</svg>
