<?xml version="1.0" encoding="utf-8"?>
<!-- Generator: Adobe Illustrator 23.0.6, SVG Export Plug-In . SVG Version: 6.00 Build 0)  -->
<svg version="1.1" id="Layer_1" xmlns="http://www.w3.org/2000/svg" xmlns:xlink="http://www.w3.org/1999/xlink" x="0px" y="0px"
	 viewBox="0 0 24 24" style="enable-background:new 0 0 24 24;" xml:space="preserve">
<style type="text/css">
	.st0{fill:#FFFFFF;}
</style>
<g>
	<polygon class="st0" points="10.4,11.6 12.5,13.8 14.7,11.6 13.1,11.6 13.1,10 12,10 12,11.6 	"/>
	<rect x="11" y="1.5" class="st0" width="2" height="2"/>
	<path class="st0" d="M18,3.5h-5v2h-2v-2H6c-1.1,0-2,0.9-2,2v15c0,1.1,0.9,2,2,2h12c1.1,0,2-0.9,2-2v-15C20,4.4,19.1,3.5,18,3.5z
		 M9.8,19.8c-0.6,0-1.1-0.5-1.1-1.1c0-0.6,0.5-1.1,1.1-1.1c0.6,0,1.1,0.5,1.1,1.1C10.9,19.3,10.4,19.8,9.8,19.8z M15.3,19.8
		c-0.6,0-1.1-0.5-1.1-1.1c0-0.6,0.5-1.1,1.1-1.1c0.6,0,1.1,0.5,1.1,1.1C16.4,19.3,15.9,19.8,15.3,19.8z M17.4,10.8l-2,3.5
		c-0.2,0.3-0.6,0.6-1,0.6h-4.1l-0.6,1c0,0.1,0,0.1,0,0.1h6.6v1.1H9.8c-0.9,0-1.4-1-1-1.7l0.7-1L7.7,10l-1.1,0l0-1.1l1.9,0L8.9,10H12
		V8.9h1.1V10h3.8C17.3,10,17.6,10.4,17.4,10.8z"/>
</g>
</svg>
