<?xml version="1.0" encoding="utf-8"?>
<!-- Generator: Adobe Illustrator 23.0.6, SVG Export Plug-In . SVG Version: 6.00 Build 0)  -->
<svg version="1.1" id="Layer_1" xmlns="http://www.w3.org/2000/svg" xmlns:xlink="http://www.w3.org/1999/xlink" x="0px" y="0px"
	 viewBox="0 0 24 24" style="enable-background:new 0 0 24 24;" xml:space="preserve">
<style type="text/css">
	.st0{fill:#FFFFFF;}
</style>
<g>
	<rect x="11" y="1.5" class="st0" width="2" height="2"/>
	<polygon class="st0" points="10.9,12.1 12,12.1 12,13.4 13.1,13.4 13.1,12.1 14.2,12.1 12.6,10.4 	"/>
	<path class="st0" d="M18,3.5h-5v2h-2v-2H6c-1.1,0-2,0.9-2,2v15c0,1.1,0.9,2,2,2h12c1.1,0,2-0.9,2-2v-15C20,4.4,19.1,3.5,18,3.5z
		 M9.8,19.5c-0.6,0-1.1-0.5-1.1-1.1c0-0.6,0.5-1.1,1.1-1.1c0.6,0,1.1,0.5,1.1,1.1C10.9,19.1,10.4,19.5,9.8,19.5z M15.3,19.5
		c-0.6,0-1.1-0.5-1.1-1.1c0-0.6,0.5-1.1,1.1-1.1c0.6,0,1.1,0.5,1.1,1.1C16.4,19.1,15.9,19.5,15.3,19.5z M17.5,10.4l-2,3.6
		c-0.2,0.4-0.6,0.6-1,0.6h-4.1l-0.7,1c0,0.1,0,0.1,0,0.1h6.7v1.1H9.7c-0.9,0-1.4-1-1-1.8L9.4,14L7.6,9.6l-1.1,0l0-1.1l1.9,0l0.5,1.1
		H17C17.4,9.6,17.7,10,17.5,10.4z"/>
</g>
</svg>
