<svg xmlns="http://www.w3.org/2000/svg" viewBox="0 0 24 24">
  <path d="M11 1L11 4L8 4L8 6L11 6L11 9L13 9L13 6L16 6L16 4L13 4L13 1L11 1 z M 4.4160156 1.9960938L1.0039062 2.0136719L1.0136719 4.0136719L3.0839844 4.0039062L6.3789062 11.908203L5.1816406 13.822266C4.3432852 15.161017 5.3626785 17 6.9414062 17L19 17L19 15L6.9414062 15C6.8301342 15 6.8173041 14.978071 6.8769531 14.882812L8.0527344 13L15.521484 13C16.246284 13 16.917475 12.604805 17.269531 11.970703L21.382812 4.5664062L19.634766 3.5957031L15.521484 11L8.1660156 11L4.4160156 1.9960938 z M 7 18 A 2 2 0 0 0 5 20 A 2 2 0 0 0 7 22 A 2 2 0 0 0 9 20 A 2 2 0 0 0 7 18 z M 17 18 A 2 2 0 0 0 15 20 A 2 2 0 0 0 17 22 A 2 2 0 0 0 19 20 A 2 2 0 0 0 17 18 z" fill="#FFFFFF" />
</svg>